<?xml version="1.0" encoding="UTF-8"?>
<svg id="Layer_2" data-name="Layer 2" xmlns="http://www.w3.org/2000/svg" width="116.934" height="116.934" viewBox="0 0 116.934 116.934">
  <defs>
    <style>
      .cls-1 {
        fill: #6cbbc4;
      }
    </style>
  </defs>
  <g id="Logos">
    <g>
      <path class="cls-1" d="M70.797,78.211l28.026,28.026-10.696,10.696-23.088-23.088c-3.629-3.629-9.514-3.629-13.144,0l-23.088,23.088-10.696-10.696,28.028-28.026c1.045-1.045,2.463-1.633,3.943-1.633h16.773c1.478,0,2.898.588,3.943,1.633"/>
      <path class="cls-1" d="M38.723,46.138L10.696,18.111,0,28.807l23.087,23.088c3.631,3.629,3.631,9.513,0,13.144L0,88.128l10.696,10.696,28.026-28.028c1.045-1.045,1.633-2.465,1.633-3.943v-16.773c0-1.478-.588-2.898-1.633-3.943"/>
      <path class="cls-1" d="M46.137,38.723L18.111,10.696,28.807,0l23.088,23.088c3.629,3.629,9.513,3.629,13.144,0L88.128,0l10.696,10.696-28.028,28.026c-1.045,1.047-2.465,1.633-3.943,1.633h-16.773c-1.478,0-2.898-.587-3.943-1.633"/>
      <path class="cls-1" d="M78.211,70.797l28.026,28.026,10.696-10.696-23.087-23.088c-3.631-3.629-3.631-9.514,0-13.144l23.087-23.088-10.696-10.696-28.026,28.028c-1.045,1.045-1.633,2.463-1.633,3.943v16.773c0,1.478.588,2.898,1.633,3.943"/>
    </g>
  </g>
</svg>